<svg xmlns="http://www.w3.org/2000/svg" xmlns:xlink="http://www.w3.org/1999/xlink" width="500" zoomAndPan="magnify" viewBox="0 0 375 374.999991" height="500" preserveAspectRatio="xMidYMid meet" version="1.0"><defs><g/><clipPath id="13ce3532b0"><path d="M 89.914062 210.816406 L 182.804688 210.816406 L 182.804688 221.148438 L 89.914062 221.148438 Z M 89.914062 210.816406 " clip-rule="nonzero"/></clipPath><clipPath id="0f2044f4ae"><path d="M 194.894531 152.109375 L 287.789062 152.109375 L 287.789062 162.4375 L 194.894531 162.4375 Z M 194.894531 152.109375 " clip-rule="nonzero"/></clipPath></defs><g clip-path="url(#13ce3532b0)"><path fill="#ffffff" d="M 89.914062 210.816406 L 182.800781 210.816406 L 182.800781 221.148438 L 89.914062 221.148438 Z M 89.914062 210.816406 " fill-opacity="1" fill-rule="nonzero"/></g><g clip-path="url(#0f2044f4ae)"><path fill="#ffffff" d="M 194.894531 152.109375 L 287.785156 152.109375 L 287.785156 162.4375 L 194.894531 162.4375 Z M 194.894531 152.109375 " fill-opacity="1" fill-rule="nonzero"/></g><g fill="#ffffff" fill-opacity="1"><g transform="translate(91.136754, 202.878824)"><g><path d="M 8.519531 -47.988281 L 0.660156 -47.988281 C 0.300781 -47.988281 0 -47.6875 0 -47.449219 L 0 -28.613281 L 9.175781 -28.613281 L 9.175781 -39.230469 C 19.613281 -39.769531 27.351562 -35.390625 27.351562 -23.992188 C 27.351562 -9.175781 14.996094 -8.578125 9.175781 -8.816406 L 9.175781 -19.375 L 0 -19.375 L 0 -0.539062 C 0 -0.300781 0.300781 0 0.660156 0 L 8.519531 0 C 20.453125 0 36.589844 -3.480469 36.589844 -23.992188 C 36.589844 -45.289062 20.214844 -47.988281 8.519531 -47.988281 Z M 8.519531 -47.988281 "/></g></g></g><g fill="#ffffff" fill-opacity="1"><g transform="translate(141.999902, 202.878824)"><g><path d="M 37.671875 -0.71875 L 19.433594 -47.628906 C 19.253906 -48.109375 18.414062 -48.109375 18.234375 -47.628906 L 0.0585938 -0.71875 C -0.121094 -0.359375 0.121094 0 0.660156 0 L 8.878906 0 C 9.117188 0 9.417969 -0.121094 9.476562 -0.359375 L 18.835938 -27.113281 L 28.3125 -0.359375 C 28.371094 -0.121094 28.671875 0 28.851562 0 L 37.128906 0 C 37.550781 0 37.851562 -0.359375 37.671875 -0.71875 Z M 37.671875 -0.71875 "/></g></g></g><g fill="#ffffff" fill-opacity="1"><g transform="translate(204.247433, 230.997921)"><g><path d="M 9.898438 -30.59375 L 9.898438 -0.539062 C 9.898438 -0.300781 10.136719 0 10.558594 0 L 18.296875 0 C 18.714844 0 19.015625 -0.300781 19.015625 -0.539062 L 19.015625 -30.59375 Z M 0.660156 -39.773438 L 28.195312 -39.773438 C 28.613281 -39.773438 28.855469 -40.011719 28.855469 -40.3125 L 28.855469 -47.449219 C 28.855469 -47.691406 28.613281 -47.988281 28.195312 -47.988281 L 0.660156 -47.988281 C 0.300781 -47.988281 0 -47.691406 0 -47.449219 L 0 -40.3125 C 0 -40.011719 0.300781 -39.773438 0.660156 -39.773438 Z M 0.660156 -39.773438 "/></g></g></g><g fill="#ffffff" fill-opacity="1"><g transform="translate(246.95824, 230.997921)"><g><path d="M 37.671875 -0.71875 L 19.4375 -47.628906 C 19.257812 -48.109375 18.417969 -48.109375 18.234375 -47.628906 L 0.0585938 -0.71875 C -0.121094 -0.359375 0.121094 0 0.660156 0 L 8.878906 0 C 9.117188 0 9.417969 -0.121094 9.476562 -0.359375 L 18.835938 -27.113281 L 28.3125 -0.359375 C 28.375 -0.121094 28.675781 0 28.855469 0 L 37.132812 0 C 37.550781 0 37.851562 -0.359375 37.671875 -0.71875 Z M 37.671875 -0.71875 "/></g></g></g></svg>